HIERARCHY
ROOT hip
{
	OFFSET 0.000000 0.000000 0.000000
	CHANNELS 6 Xposition Yposition Zposition Xrotation Zrotation Yrotation 
	JOINT abdomen
	{
		OFFSET 0.000000 3.422050 0.000000
		CHANNELS 3 Xrotation Zrotation Yrotation 
		JOINT chest
		{
			OFFSET 0.000000 8.486693 -0.684411
			CHANNELS 3 Xrotation Zrotation Yrotation 
			JOINT neck
			{
				OFFSET 0.000000 10.266162 -0.273764
				CHANNELS 3 Xrotation Zrotation Yrotation 
				JOINT head
				{
					OFFSET 0.000000 3.148285 0.000000
					CHANNELS 3 Xrotation Zrotation Yrotation 
					End Site
					{
						OFFSET 0.000000 3.148289 0.000000
					}
				}
			}
			JOINT lCollar
			{
				OFFSET 3.422053 6.707223 -0.821293
				CHANNELS 3 Yrotation Zrotation Xrotation 
				JOINT lShldr
				{
					OFFSET 3.285171 0.000000 0.000000
					CHANNELS 3 Zrotation Yrotation Xrotation 
					JOINT lForeArm
					{
						OFFSET 10.129278 0.000000 0.000000
						CHANNELS 3 Yrotation Zrotation Xrotation 
						JOINT lHand
						{
							OFFSET 8.486692 0.000000 0.000000
							CHANNELS 3 Zrotation Yrotation Xrotation 
							End Site
							{
								OFFSET 4.106464 0.000000 0.000000
							}
						}
					}
				}
			}
			JOINT rCollar
			{
				OFFSET -3.558935 6.707223 -0.821293
				CHANNELS 3 Yrotation Zrotation Xrotation 
				JOINT rShldr
				{
					OFFSET -3.148289 0.000000 0.000000
					CHANNELS 3 Zrotation Yrotation Xrotation 
					JOINT rForeArm
					{
						OFFSET -10.266159 0.000000 0.000000
						CHANNELS 3 Yrotation Zrotation Xrotation 
						JOINT rHand
						{
							OFFSET -8.349810 0.000000 0.000000
							CHANNELS 3 Zrotation Yrotation Xrotation 
							End Site
							{
								OFFSET -4.106464 0.000000 0.000000
							}
						}
					}
				}
			}
		}
	}
	JOINT lThigh
	{
		OFFSET 5.338403 -1.642589 1.368821
		CHANNELS 3 Xrotation Zrotation Yrotation 
		JOINT lShin
		{
			OFFSET -2.053232 -20.121670 0.000000
			CHANNELS 3 Xrotation Zrotation Yrotation 
			JOINT lFoot
			{
				OFFSET 0.000000 -19.300380 -1.231939
				CHANNELS 3 Xrotation Yrotation Zrotation 
				End Site
				{
					OFFSET 0.000000 -2.463878 4.653993
				}
			}
		}
	}
	JOINT rThigh
	{
		OFFSET -5.338403 -1.642589 1.368821
		CHANNELS 3 Xrotation Zrotation Yrotation 
		JOINT rShin
		{
			OFFSET 2.053232 -20.121670 0.000000
			CHANNELS 3 Xrotation Zrotation Yrotation 
			JOINT rFoot
			{
				OFFSET 0.000000 -19.300380 -1.231939
				CHANNELS 3 Xrotation Yrotation Zrotation 
				End Site
				{
					OFFSET 0.000000 -2.463878 4.653993
				}
			}
		}
	}
}
MOTION
Frames: 18
Frame Time: 0.033325
0.000000 43.528500 0.000000 0.000000 0.000000 0.000000 0.000000 0.000000 0.000000 0.000000 0.000000 0.000000 0.000000 0.000000 0.000000 0.000000 0.000000 0.000000 0.000000 0.000000 0.000000 0.000000 0.000000 0.000000 0.000000 0.000000 0.000000 0.000000 0.000000 0.000000 0.000000 0.000000 0.000000 0.000000 0.000000 0.000000 0.000000 0.000000 0.000000 0.000000 0.000000 0.000000 0.000000 0.000000 0.000000 0.000000 0.000000 0.000000 0.000000 0.000000 0.000000 0.000000 0.000000 0.000000 0.000000 0.000000 0.000000 0.000000 0.000000 0.000000 
-2.243796 22.150879 4.112130 -88.019653 -29.998375 99.018417 58.649879 19.998390 0.000129 14.559303 -17.003897 -0.450387 3.000293 -23.003336 -0.001957 5.997405 12.999784 -4.003199 -2.000094 -4.000278 -0.005112 93.009583 -78.996208 177.985809 -122.026634 0.002190 -5.002202 -2.000751 -4.001647 -3.001515 0.000000 0.000000 0.000000 49.989307 7.997460 28.993570 95.030380 -0.037087 -26.007914 35.996708 15.797572 -3.002042 -5.813346 0.148814 -10.648507 106.633217 0.641228 -0.061215 32.080410 -0.397252 -0.717265 -6.578451 9.311120 -13.311363 103.070938 0.498946 -0.010047 12.704296 0.520236 0.137373 
-2.243796 22.150879 4.112130 -88.019653 -29.998375 99.018417 58.649879 19.998390 0.000129 14.559303 -17.003899 -0.450387 3.000293 -23.003338 -0.001957 5.997405 12.999785 -4.003199 -2.000094 -4.000278 -0.005112 93.009583 -78.996208 177.985809 -122.026634 0.002190 -5.002202 -2.000751 -4.001647 -3.001515 0.000000 0.000000 0.000000 49.989311 7.997463 28.993572 95.030380 -0.037086 -26.007914 35.996708 15.797574 -3.002042 -5.813347 0.148814 -10.648507 106.633217 0.641228 -0.061215 32.080410 -0.397252 -0.717265 -6.578451 9.311120 -13.311363 103.070938 0.498946 -0.010047 12.704296 0.520236 0.137373 
-2.243796 22.150879 4.112130 -88.019653 -29.998379 99.018410 58.649879 19.998390 0.000129 14.559301 -17.003895 -0.450387 3.000293 -23.003336 -0.001958 5.997405 12.999784 -4.003199 -2.000094 -4.000278 -0.005112 93.009583 -78.996208 177.985809 -122.026619 0.002190 -5.002202 -2.000751 -4.001647 -3.001515 0.000000 0.000000 0.000000 49.989300 7.997458 28.993567 95.030380 -0.037088 -26.007912 35.996708 15.797572 -3.002042 -5.813346 0.148814 -10.648507 106.633217 0.641228 -0.061215 32.080406 -0.397252 -0.717265 -6.578451 9.311120 -13.311363 103.070938 0.498946 -0.010047 12.704296 0.520236 0.137373 
-2.243796 22.150879 4.112130 -88.019653 -29.998375 99.018417 58.649879 19.998390 0.000129 14.559303 -17.003897 -0.450387 3.000293 -23.003336 -0.001957 5.997405 12.999784 -4.003199 -2.000094 -4.000278 -0.005112 93.009583 -78.996208 177.985809 -122.026634 0.002190 -5.002202 -2.000751 -4.001647 -3.001515 0.000000 0.000000 0.000000 49.989307 7.997460 28.993570 95.030380 -0.037087 -26.007914 35.996708 15.797572 -3.002042 -5.813346 0.148814 -10.648507 106.633217 0.641228 -0.061215 32.080414 -0.397252 -0.717265 -6.578451 9.311120 -13.311363 103.070938 0.498946 -0.010047 12.704296 0.520236 0.137373 
-2.243796 22.150879 4.112130 -88.019653 -29.998375 99.018417 58.649887 19.998390 0.000129 14.559303 -17.003897 -0.450387 3.000293 -23.003336 -0.001957 5.997405 12.999784 -4.003199 -2.000094 -4.000278 -0.005112 93.009636 -78.996246 177.985779 -122.026642 0.002190 -5.002202 -2.000751 -4.001647 -3.001515 0.000000 0.000000 0.000000 49.989315 7.997458 28.993572 95.030380 -0.037088 -26.007914 35.996708 15.797572 -3.002042 -5.813347 0.148814 -10.648507 106.633224 0.641228 -0.061215 32.080414 -0.397252 -0.717265 -6.578451 9.311120 -13.311365 103.070946 0.498946 -0.010047 12.704297 0.520236 0.137373 
-2.243796 22.150879 4.112130 -88.019646 -29.998379 99.018417 58.649879 19.998390 0.000128 14.559303 -17.003897 -0.450387 3.000292 -23.003336 -0.001957 5.997405 12.999784 -4.003199 -2.000094 -4.000278 -0.005112 93.009560 -78.996185 177.985809 -122.026634 0.002190 -5.002202 -2.000751 -4.001647 -3.001515 0.000000 0.000000 0.000000 49.989307 7.997460 28.993570 95.030380 -0.037088 -26.007912 35.996704 15.797572 -3.002042 -5.813346 0.148814 -10.648507 106.633217 0.641228 -0.061215 32.080410 -0.397252 -0.717265 -6.578450 9.311120 -13.311363 103.070938 0.498946 -0.010047 12.704296 0.520236 0.137373 
-2.243796 22.150879 4.112130 -88.019653 -29.998375 99.018417 58.649879 19.998390 0.000129 14.559303 -17.003897 -0.450387 3.000293 -23.003336 -0.001957 5.997405 12.999784 -4.003199 -2.000094 -4.000279 -0.005112 93.009583 -78.996208 177.985809 -122.026634 0.002190 -5.002202 -2.000751 -4.001647 -3.001515 0.000000 0.000000 0.000000 49.989307 7.997460 28.993570 95.030380 -0.037087 -26.007914 35.996708 15.797572 -3.002042 -5.813346 0.148814 -10.648507 106.633217 0.641228 -0.061215 32.080410 -0.397252 -0.717265 -6.578451 9.311120 -13.311363 103.070938 0.498946 -0.010047 12.704296 0.520236 0.137373 
-2.243796 22.150879 4.112130 -88.019653 -29.998375 99.018417 58.649887 19.998390 0.000128 14.559303 -17.003897 -0.450387 3.000293 -23.003338 -0.001957 5.997405 12.999785 -4.003199 -2.000094 -4.000279 -0.005112 93.009583 -78.996208 177.985809 -122.026634 0.002190 -5.002202 -2.000751 -4.001647 -3.001515 0.000000 0.000000 0.000000 49.989307 7.997460 28.993570 95.030380 -0.037087 -26.007914 35.996708 15.797572 -3.002042 -5.813347 0.148814 -10.648507 106.633217 0.641228 -0.061215 32.080414 -0.397252 -0.717265 -6.578451 9.311120 -13.311363 103.070938 0.498946 -0.010047 12.704298 0.520236 0.137373 
-2.243796 22.150879 4.112130 -88.019653 -29.998373 99.018417 58.649879 19.998390 0.000129 14.559303 -17.003897 -0.450387 3.000293 -23.003336 -0.001957 5.997405 12.999784 -4.003199 -2.000094 -4.000278 -0.005112 93.009583 -78.996208 177.985809 -122.026634 0.002190 -5.002202 -2.000751 -4.001647 -3.001515 0.000000 0.000000 0.000000 49.989304 7.997460 28.993570 95.030380 -0.037087 -26.007914 35.996708 15.797572 -3.002041 -5.813346 0.148814 -10.648507 106.633217 0.641228 -0.061215 32.080410 -0.397252 -0.717265 -6.578451 9.311120 -13.311362 103.070938 0.498946 -0.010047 12.704296 0.520236 0.137373 
-2.243796 22.150879 4.112130 -88.019653 -29.998375 99.018417 58.649879 19.998390 0.000129 14.559303 -17.003897 -0.450387 3.000293 -23.003336 -0.001957 5.997405 12.999784 -4.003199 -2.000094 -4.000278 -0.005112 93.009583 -78.996208 177.985809 -122.026634 0.002190 -5.002202 -2.000751 -4.001647 -3.001515 0.000000 0.000000 0.000000 49.989307 7.997460 28.993570 95.030380 -0.037087 -26.007914 35.996708 15.797572 -3.002042 -5.813346 0.148814 -10.648507 106.633217 0.641228 -0.061215 32.080414 -0.397252 -0.717265 -6.578451 9.311120 -13.311363 103.070938 0.498946 -0.010047 12.704296 0.520236 0.137373 
-2.243796 22.150879 4.112130 -88.019653 -29.998373 99.018417 58.649879 19.998390 0.000129 14.559301 -17.003895 -0.450387 3.000292 -23.003334 -0.001957 5.997404 12.999784 -4.003198 -2.000094 -4.000278 -0.005112 93.009583 -78.996208 177.985809 -122.026619 0.002190 -5.002202 -2.000751 -4.001647 -3.001515 0.000000 0.000000 0.000000 49.989307 7.997458 28.993570 95.030365 -0.037086 -26.007910 35.996708 15.797572 -3.002042 -5.813346 0.148814 -10.648505 106.633217 0.641228 -0.061215 32.080410 -0.397252 -0.717265 -6.578450 9.311119 -13.311362 103.070923 0.498946 -0.010047 12.704295 0.520236 0.137373 
-2.243796 22.150879 4.112130 -88.019653 -29.998375 99.018417 58.649879 19.998390 0.000129 14.559301 -17.003897 -0.450387 3.000293 -23.003336 -0.001957 5.997405 12.999784 -4.003198 -2.000094 -4.000278 -0.005112 93.009583 -78.996208 177.985809 -122.026634 0.002190 -5.002202 -2.000751 -4.001647 -3.001515 0.000000 0.000000 0.000000 49.989307 7.997460 28.993570 95.030380 -0.037087 -26.007914 35.996708 15.797572 -3.002041 -5.813346 0.148814 -10.648506 106.633217 0.641228 -0.061215 32.080410 -0.397252 -0.717265 -6.578451 9.311120 -13.311363 103.070938 0.498946 -0.010047 12.704296 0.520236 0.137373 
-2.243796 22.150879 4.112130 -88.019653 -29.998375 99.018417 58.649887 19.998390 0.000128 14.559303 -17.003897 -0.450387 3.000293 -23.003336 -0.001957 5.997405 12.999784 -4.003198 -2.000094 -4.000278 -0.005112 93.009598 -78.996223 177.985809 -122.026634 0.002190 -5.002202 -2.000751 -4.001647 -3.001515 0.000000 0.000000 0.000000 49.989311 7.997461 28.993570 95.030380 -0.037086 -26.007914 35.996708 15.797572 -3.002042 -5.813346 0.148814 -10.648507 106.633217 0.641228 -0.061215 32.080414 -0.397252 -0.717265 -6.578451 9.311120 -13.311363 103.070938 0.498946 -0.010047 12.704297 0.520236 0.137373 
-2.243796 22.150879 4.112130 -88.019653 -29.998375 99.018417 58.649887 19.998390 0.000129 14.559303 -17.003897 -0.450387 3.000293 -23.003340 -0.001957 5.997405 12.999784 -4.003199 -2.000094 -4.000278 -0.005112 93.009598 -78.996223 177.985809 -122.026642 0.002190 -5.002202 -2.000751 -4.001647 -3.001516 0.000000 0.000000 0.000000 49.989315 7.997458 28.993572 95.030380 -0.037087 -26.007914 35.996708 15.797572 -3.002042 -5.813346 0.148814 -10.648507 106.633224 0.641228 -0.061215 32.080410 -0.397252 -0.717265 -6.578451 9.311121 -13.311364 103.070938 0.498946 -0.010047 12.704297 0.520236 0.137373 
-2.243796 22.150879 4.112130 -88.019653 -29.998375 99.018417 58.649879 19.998390 0.000129 14.559303 -17.003897 -0.450387 3.000293 -23.003336 -0.001957 5.997405 12.999784 -4.003199 -2.000094 -4.000278 -0.005112 93.009583 -78.996208 177.985809 -122.026634 0.002190 -5.002202 -2.000751 -4.001647 -3.001515 0.000000 0.000000 0.000000 49.989304 7.997460 28.993570 95.030380 -0.037087 -26.007914 35.996708 15.797572 -3.002042 -5.813346 0.148814 -10.648506 106.633217 0.641228 -0.061215 32.080410 -0.397252 -0.717265 -6.578451 9.311120 -13.311363 103.070938 0.498946 -0.010047 12.704296 0.520236 0.137373 
-2.243796 22.150879 4.112130 -88.019653 -29.998375 99.018417 58.649879 19.998390 0.000129 14.559303 -17.003897 -0.450387 3.000293 -23.003334 -0.001957 5.997405 12.999784 -4.003199 -2.000094 -4.000278 -0.005112 93.009583 -78.996208 177.985809 -122.026634 0.002190 -5.002202 -2.000751 -4.001647 -3.001515 0.000000 0.000000 0.000000 49.989307 7.997460 28.993570 95.030380 -0.037087 -26.007914 35.996708 15.797572 -3.002042 -5.813346 0.148814 -10.648507 106.633217 0.641228 -0.061215 32.080410 -0.397252 -0.717265 -6.578451 9.311120 -13.311363 103.070938 0.498946 -0.010047 12.704296 0.520236 0.137373 
-2.243796 22.150879 4.112130 -88.019653 -29.998379 99.018410 58.649879 19.998390 0.000128 14.559303 -17.003897 -0.450387 3.000293 -23.003336 -0.001957 5.997404 12.999784 -4.003199 -2.000094 -4.000278 -0.005112 93.009560 -78.996185 177.985809 -122.026619 0.002190 -5.002202 -2.000751 -4.001647 -3.001515 0.000000 0.000000 0.000000 49.989307 7.997460 28.993570 95.030380 -0.037088 -26.007912 35.996708 15.797572 -3.002042 -5.813346 0.148814 -10.648506 106.633209 0.641228 -0.061215 32.080410 -0.397252 -0.717265 -6.578450 9.311119 -13.311363 103.070938 0.498946 -0.010047 12.704296 0.520236 0.137373 
